<svg width="23" height="30" viewBox="0 0 23 30" fill="none" xmlns="http://www.w3.org/2000/svg">
<path d="M14.7954 29.9999H21.3409V29.7954L10.0909 17.8636L10.1591 17.6591H10.8409C13.2954 17.6591 15.3295 16.9091 16.9431 15.4091C18.5568 13.9091 19.5454 12.1591 19.9091 10.1591H22.6363V6.95453H19.8409C19.7045 6.27272 19.4659 5.62499 19.125 5.01135C18.7841 4.39772 18.3636 3.79545 17.8636 3.20454H22.6363V0H0V3.88636H10.6363C11.8182 3.88636 12.7841 4.18181 13.5341 4.77272C14.2841 5.36363 14.7954 6.0909 15.0682 6.95453H0V10.1591H15.1363C14.8636 11.0682 14.3409 11.8522 13.5682 12.5113C12.7954 13.1704 11.75 13.5 10.4318 13.5H3.61363V17.8636L14.7954 29.9999Z" fill="#FF5900"/>
</svg>
