<svg width="61" height="44" viewBox="0 0 61 44" fill="none" xmlns="http://www.w3.org/2000/svg">
<path d="M35.75 24.75C33.4583 24.75 31.5104 23.9479 29.9062 22.3438C28.3021 20.7396 27.5 18.7917 27.5 16.5C27.5 14.2083 28.3021 12.2604 29.9062 10.6562C31.5104 9.05208 33.4583 8.25 35.75 8.25C38.0417 8.25 39.9896 9.05208 41.5938 10.6562C43.1979 12.2604 44 14.2083 44 16.5C44 18.7917 43.1979 20.7396 41.5938 22.3438C39.9896 23.9479 38.0417 24.75 35.75 24.75ZM16.5 33C14.9875 33 13.6927 32.4615 12.6156 31.3844C11.5385 30.3073 11 29.0125 11 27.5V5.5C11 3.9875 11.5385 2.69271 12.6156 1.61563C13.6927 0.538542 14.9875 0 16.5 0H55C56.5125 0 57.8073 0.538542 58.8844 1.61563C59.9615 2.69271 60.5 3.9875 60.5 5.5V27.5C60.5 29.0125 59.9615 30.3073 58.8844 31.3844C57.8073 32.4615 56.5125 33 55 33H16.5ZM22 27.5H49.5C49.5 25.9875 50.0385 24.6927 51.1156 23.6156C52.1927 22.5385 53.4875 22 55 22V11C53.4875 11 52.1927 10.4615 51.1156 9.38438C50.0385 8.30729 49.5 7.0125 49.5 5.5H22C22 7.0125 21.4615 8.30729 20.3844 9.38438C19.3073 10.4615 18.0125 11 16.5 11V22C18.0125 22 19.3073 22.5385 20.3844 23.6156C21.4615 24.6927 22 25.9875 22 27.5ZM52.25 44H5.5C3.9875 44 2.69271 43.4615 1.61563 42.3844C0.538542 41.3073 0 40.0125 0 38.5V8.25H5.5V38.5H52.25V44Z" fill="#FF5900"/>
</svg>
