<svg width="68" height="68" viewBox="0 0 68 68" fill="none" xmlns="http://www.w3.org/2000/svg">
<path d="M3.77778 34C3.77778 43.0667 7.93333 51.3778 14.3556 57.0444L11.7111 62.7111C10.9556 64.6 11.7111 66.8667 13.2222 67.6222C13.9778 68 14.3556 68 15.1111 68C16.6222 68 17.7556 67.2444 18.5111 65.7333L20.7778 60.8222C24.9333 63.0889 29.4667 64.2222 34 64.2222C38.5333 64.2222 42.6889 63.0889 46.4667 61.5778L49.8667 66.4889C50.6222 67.6222 51.7556 68 52.8889 68C53.6444 68 54.4 67.6222 55.1556 67.2444C57.0444 66.1111 57.4222 63.8444 55.9111 61.9556L52.8889 57.4222C59.6889 51.7556 64.2222 43.4444 64.2222 34C64.2222 17.3778 50.6222 3.77778 34 3.77778C17.3778 3.77778 3.77778 17.3778 3.77778 34ZM56.6667 34C56.6667 46.4667 46.4667 56.6667 34 56.6667C21.5333 56.6667 11.3333 46.4667 11.3333 34C11.3333 21.5333 21.5333 11.3333 34 11.3333C46.4667 11.3333 56.6667 21.5333 56.6667 34ZM8.68889 1.13333L1.13333 8.68889C-0.377778 10.2 -0.377778 12.4667 1.13333 13.9778C1.88889 14.7333 2.64444 15.1111 3.77778 15.1111C4.91111 15.1111 5.66667 14.7333 6.42222 13.9778L13.9778 6.42222C15.4889 4.91111 15.4889 2.64444 13.9778 1.13333C12.4667 -0.377778 10.2 -0.377778 8.68889 1.13333ZM64.2222 15.1111C65.3556 15.1111 66.1111 14.7333 66.8667 13.9778C68.3778 12.4667 68.3778 10.2 66.8667 8.68889L59.3111 1.13333C57.8 -0.377778 55.5333 -0.377778 54.0222 1.13333C52.5111 2.64444 52.5111 4.91111 54.0222 6.42222L61.5778 13.9778C62.3333 14.7333 63.0889 15.1111 64.2222 15.1111Z" fill="black"/>
</svg>
